<svg xmlns="http://www.w3.org/2000/svg" viewBox="0 0 770 480">
  <!-- Background -->
  <rect width="770" height="480" fill="#131620" rx="10" ry="10" />
  
  <!-- Title -->
  <text x="415" y="40" font-family="Arial" font-size="24" text-anchor="middle" font-weight="bold" fill="#E9BD65">Pipeline Flow</text>
  
  <!-- Timeline Sections -->
  <line x1="55" y1="100" x2="700" y2="100" stroke="#555" stroke-width="2" />
  <line x1="55" y1="240" x2="700" y2="240" stroke="#555" stroke-width="2" />
  <line x1="55" y1="380" x2="700" y2="380" stroke="#555" stroke-width="2" />
  
  <!-- Row Labels -->
  <text x="50" y="100" font-family="Arial" font-size="16" text-anchor="end" dominant-baseline="middle" fill="#E9BD65">Main</text>
  <text x="50" y="240" font-family="Arial" font-size="16" text-anchor="end" dominant-baseline="middle" fill="#E9BD65">Pipes</text>
  <text x="50" y="380" font-family="Arial" font-size="16" text-anchor="end" dominant-baseline="middle" fill="#E9BD65">Child</text>
  


  <!-- **************************************************** -->
  <!-- Main Process: Command 1 -->
  <!-- **************************************************** -->
  <!-- <rect x="64" y="60" width="197" height="360" rx="5" ry="5" fill="#303030" stroke="#555" stroke-width="1" stroke-dasharray="3,3" /> -->
  <rect x="70" y="70" width="180" height="60" rx="5" ry="5" fill="#404040" stroke="#A4E57E" stroke-width="2" />
  <text x="160" y="95" font-family="Arial" font-size="14" text-anchor="middle" dominant-baseline="middle" font-weight="bold" fill="#E9BD65">Main (index = 0)</text>
  <text x="160" y="110" font-family="Arial" font-size="12" text-anchor="middle" dominant-baseline="middle" fill="white">pipe() → fork()</text>
  
  <!-- Command 1 Pipe Group -->
  <rect x="70" y="213" width="185" height="55" rx="5" ry="5" fill="#303030" stroke="#555" stroke-width="1" stroke-dasharray="3,3" />
  
  <!-- inpipe (swapped with infile) -->
  <rect x="75" y="220" width="40" height="40" rx="5" ry="5" fill="#404040" stroke="#E57ED1" stroke-width="2" />
  <text x="95" y="236" font-family="Arial" font-size="11" text-anchor="middle" dominant-baseline="middle" fill="white">inpipe</text>
  <text x="95" y="248" font-family="Arial" font-size="11" text-anchor="middle" dominant-baseline="middle" fill="#A5D4E5">(none)</text>
   
  <!-- Pipes for Command 1 -->
  <rect x="120" y="220" width="40" height="40" rx="5" ry="5" fill="#404040" stroke="#F0E4BC" stroke-width="2" />
  <text x="140" y="236" font-family="Arial" font-size="11" text-anchor="middle" dominant-baseline="middle" fill="white">pipe[0]</text>
  <text x="140" y="248" font-family="Arial" font-size="11" text-anchor="middle" dominant-baseline="middle" fill="#A5D4E5">(read)</text>
  
  <rect x="165" y="220" width="40" height="40" rx="5" ry="5" fill="#404040" stroke="#F0E4BC" stroke-width="2" />
  <text x="185" y="236" font-family="Arial" font-size="11" text-anchor="middle" dominant-baseline="middle" fill="white">pipe[1]</text>
  <text x="185" y="248" font-family="Arial" font-size="11" text-anchor="middle" dominant-baseline="middle" fill="#E57E60">(write)</text>
  
  <rect x="210" y="220" width="40" height="40" rx="5" ry="5" fill="#404040" stroke="#A5D4E5" stroke-width="2" />
  <text x="230" y="236" font-family="Arial" font-size="11" text-anchor="middle" dominant-baseline="middle" fill="white">infile</text>
  <text x="230" y="248" font-family="Arial" font-size="11" text-anchor="middle" dominant-baseline="middle" fill="#A5D4E5">(read)</text>
  
  <!-- Child Process 1 -->
  <rect x="70" y="350" width="180" height="60" rx="5" ry="5" fill="#404040" stroke="#F5B5B5" stroke-width="2" />
  <text x="160" y="370" font-family="Arial" font-size="14" text-anchor="middle" font-weight="bold" fill="#E9BD65">Child PID[0] (cmd1)</text>
  <text x="160" y="385" font-family="Arial" font-size="12" text-anchor="middle" fill="white">dup2(infile, STDIN)</text>
  <text x="160" y="400" font-family="Arial" font-size="12" text-anchor="middle" fill="white">dup2(pipe[1], STDOUT)</text>
  
  <!-- Arrows for Process Flow: Command 1 -->
  <!-- Main to pipe[0] - changed from inpipe -->
  <path d="M140 220 L140 130" fill="none" stroke="#E57ED1" stroke-width="2" stroke-dasharray="5,3" />
  <polygon points="135,140 140,130 145,140" fill="#E57ED1" />
  
  <!-- infile to Child 1 STDIN (right side) -->
  <path d="M230 260 L230 350" fill="none" stroke="#A5D4E5" stroke-width="2" />
  <polygon points="225,340 230,350 235,340" fill="#A5D4E5" />

  <!-- Child 1 STDOUT to pipe[1] (right side) -->
  <path d="M185 350 L185 260" fill="none" stroke="#E57E60" stroke-width="2" />
  <polygon points="180,270 185,260 190,270" fill="#E57E60" />

  <!-- **************************************************** -->
  <!-- Main Process: Command 2 -->
  <!-- **************************************************** -->
  <rect x="320" y="70" width="180" height="60" rx="5" ry="5" fill="#404040" stroke="#A4E57E" stroke-width="2" />
  <text x="410" y="95" font-family="Arial" font-size="14" text-anchor="middle" dominant-baseline="middle" font-weight="bold" fill="#E9BD65">Main (index = 1)</text>
  <text x="410" y="110" font-family="Arial" font-size="12" text-anchor="middle" dominant-baseline="middle" fill="white">pipe() → fork()</text>
  
  <!-- Command 2 Pipe Group -->
  <rect x="320" y="213" width="185" height="55" rx="5" ry="5" fill="#303030" stroke="#555" stroke-width="1" stroke-dasharray="3,3" />
  
  <!-- infile (now inpipe from cmd1) -->
  <rect x="325" y="220" width="40" height="40" rx="5" ry="5" fill="#404040" stroke="#E57ED1" stroke-width="2" />
  <text x="345" y="236" font-family="Arial" font-size="11" text-anchor="middle" dominant-baseline="middle" fill="white">inpipe</text>
  <text x="345" y="248" font-family="Arial" font-size="11" text-anchor="middle" dominant-baseline="middle" fill="#A5D4E5">pipe[0]</text>
  
  <!-- Pipes for Command 2 -->
  <rect x="370" y="220" width="40" height="40" rx="5" ry="5" fill="#404040" stroke="#F0E4BC" stroke-width="2" />
  <text x="390" y="236" font-family="Arial" font-size="11" text-anchor="middle" dominant-baseline="middle" fill="white">pipe[0]</text>
  <text x="390" y="248" font-family="Arial" font-size="11" text-anchor="middle" dominant-baseline="middle" fill="#A5D4E5">(read)</text>
  
  <rect x="415" y="220" width="40" height="40" rx="5" ry="5" fill="#404040" stroke="#F0E4BC" stroke-width="2" />
  <text x="435" y="236" font-family="Arial" font-size="11" text-anchor="middle" dominant-baseline="middle" fill="white">pipe[1]</text>
  <text x="435" y="248" font-family="Arial" font-size="11" text-anchor="middle" dominant-baseline="middle" fill="#E57E60">(write)</text>
  
  <rect x="445" y="220" width="40" height="40" rx="5" ry="5" fill="#404040" stroke="#E57ED1" stroke-width="2" opacity="0" />
  
  <!-- Child Process 2 -->
  <rect x="320" y="350" width="180" height="60" rx="5" ry="5" fill="#404040" stroke="#F5B5B5" stroke-width="2" />
  <text x="410" y="370" font-family="Arial" font-size="14" text-anchor="middle" font-weight="bold" fill="#E9BD65">Child PID[1] (cmd2)</text>
  <text x="410" y="385" font-family="Arial" font-size="12" text-anchor="middle" fill="white">dup2(inpipe, STDIN)</text>
  <text x="410" y="400" font-family="Arial" font-size="12" text-anchor="middle" fill="white">dup2(pipe[1], STDOUT)</text>
  
  <!-- Main to inpipe for next command - with two sharp turns -->
  <path d="M140 130 L140 170 L345 170 L345 220" fill="none" stroke="#E57ED1" stroke-width="2" stroke-dasharray="5,3" />
  <polygon points="340,210 345,220 350,210" fill="#E57ED1" />

  <!-- Arrows for Process Flow: Command 2 -->
  <!-- Main to pipe[0] - straight line with reversed arrow -->
  <path d="M390 220 L390 130" fill="none" stroke="#E57ED1" stroke-width="2" stroke-dasharray="5,3" />
  <polygon points="385,140 390,130 395,140" fill="#E57ED1" />

  <!-- inpipe to Child 2 STDIN (left side) -->
  <path d="M345 260 L345 350" fill="none" stroke="#A5D4E5" stroke-width="2" />
  <polygon points="340,340 345,350 350,340" fill="#A5D4E5" />

  <!-- Child 2 STDOUT to pipe[1] (right side) -->
  <path d="M435 350 L435 260" fill="none" stroke="#E57E60" stroke-width="2" />
  <polygon points="430,270 435,260 440,270" fill="#E57E60" />

  <!-- **************************************************** -->
  <!-- Main Process: Command 3 -->
  <!-- **************************************************** -->
  <rect x="570" y="70" width="180" height="60" rx="5" ry="5" fill="#404040" stroke="#A4E57E" stroke-width="2" />
  <text x="660" y="95" font-family="Arial" font-size="14" text-anchor="middle" dominant-baseline="middle" font-weight="bold" fill="#E9BD65">Main (index = 2)</text>
  <text x="660" y="110" font-family="Arial" font-size="12" text-anchor="middle" dominant-baseline="middle" fill="white">fork()</text>
  
  <!-- Command 3 Pipe Group -->
  <rect x="570" y="213" width="180" height="55" rx="5" ry="5" fill="#303030" stroke="#555" stroke-width="1" stroke-dasharray="3,3" />
  
  <!-- inpipe from cmd2 -->
  <rect x="575" y="220" width="40" height="40" rx="5" ry="5" fill="#404040" stroke="#E57ED1" stroke-width="2" />
  <text x="595" y="236" font-family="Arial" font-size="11" text-anchor="middle" dominant-baseline="middle" fill="white">inpipe</text>
  <text x="595" y="248" font-family="Arial" font-size="11" text-anchor="middle" dominant-baseline="middle" fill="#A5D4E5">pipe[0]</text>
  
  <!-- outfile instead of pipe for last command -->
  <rect x="705" y="220" width="40" height="40" rx="5" ry="5" fill="#404040" stroke="#A5D4E5" stroke-width="2" />
  <text x="725" y="236" font-family="Arial" font-size="11" text-anchor="middle" dominant-baseline="middle" fill="white">outfile</text>
  <text x="725" y="248" font-family="Arial" font-size="11" text-anchor="middle" dominant-baseline="middle" fill="#E57E60">(write)</text>
    
  <!-- Child Process 3 -->
  <rect x="570" y="350" width="180" height="60" rx="5" ry="5" fill="#404040" stroke="#F5B5B5" stroke-width="2" />
  <text x="660" y="370" font-family="Arial" font-size="14" text-anchor="middle" font-weight="bold" fill="#E9BD65">Child PID[2] (cmd3)</text>
  <text x="660" y="385" font-family="Arial" font-size="12" text-anchor="middle" fill="white">dup2(inpipe, STDIN)</text>
  <text x="660" y="400" font-family="Arial" font-size="12" text-anchor="middle" fill="white">dup2(outfile, STDOUT)</text>

  <!-- Arrows for Process Flow: Command 3 -->
  <!-- Main to inpipe for next command - with two sharp turns - fixed to middle of box -->
  <path d="M390 130 L390 170 L595 170 L595 220" fill="none" stroke="#E57ED1" stroke-width="2" stroke-dasharray="5,3" />
  <polygon points="590,210 595,220 600,210" fill="#E57ED1" />
  
  <!-- inpipe to Child 3 STDIN (left side) -->
  <path d="M595 260 L595 350" fill="none" stroke="#A5D4E5" stroke-width="2" />
  <polygon points="590,340 595,350 600,340" fill="#A5D4E5" />

  <!-- Child 3 STDOUT to outfile (right side) -->
  <path d="M725 350 L725 260" fill="none" stroke="#E57E60" stroke-width="2" />
  <polygon points="720,270 725,260 730,270" fill="#E57E60" />



  <!-- Main flow between processes -->
  <path d="M250 100 L320 100" fill="none" stroke="#E9BD65" stroke-width="2" />
  <polygon points="310,95 320,100 310,105" fill="#E9BD65" />
  
  <path d="M500 100 L570 100" fill="none" stroke="#E9BD65" stroke-width="2" />
  <polygon points="560,95 570,100 560,105" fill="#E9BD65" />
  
  <!-- Child flow between processes -->
  <path d="M250 380 L320 380" fill="none" stroke="#E9BD65" stroke-width="2" />
  <polygon points="310,375 320,380 310,385" fill="#E9BD65" />
  
  <path d="M500 380 L570 380" fill="none" stroke="#E9BD65" stroke-width="2" />
  <polygon points="560,375 570,380 560,385" fill="#E9BD65" />
  


  <!-- Legend -->
  <rect x="70" y="430" width="680" height="30" rx="5" ry="5" fill="#303030" stroke="#555" stroke-width="1" />

  <line x1="120" y1="445" x2="160" y2="445" stroke="#E57ED1" stroke-width="2" stroke-dasharray="5,3" />
  <text x="170" y="448" font-family="Arial" font-size="10" fill="white">DUP</text>
  
  <line x1="360" y1="445" x2="400" y2="445" stroke="#E57E60" stroke-width="2" />
  <text x="410" y="448" font-family="Arial" font-size="10" fill="white">STDOUT</text>
  
  <line x1="610" y1="445" x2="650" y2="445" stroke="#A5D4E5" stroke-width="2" />
  <text x="660" y="448" font-family="Arial" font-size="10" fill="white">STDIN</text>
</svg>